<svg xmlns="http://www.w3.org/2000/svg" viewBox="0 0 916.78 315.44" style="enable-background:new 0 0 916.78 315.44" xml:space="preserve"><path d="M82.6 196.22c-1.4 12-4.55 21.65-9.45 28.95-4.9 7.3-11 12.65-18.3 16.05-7.3 3.4-15.55 5.4-24.75 6l-5.1 42.3c17.8-.6 33.9-4.55 48.3-11.85 14.4-7.3 26.25-17.75 35.55-31.35 9.3-13.6 15.05-30 17.25-49.2l21.3-174.3h-43.8l-21 173.4zm203.84-70.23a54.95 54.95 0 0 0-8.24-9.41c-3.4-3.1-7.85-5.65-13.35-7.65s-12.65-3-21.45-3c-10.8 0-20.7 2.15-29.7 6.45-9 4.3-16.8 10.1-23.4 17.4-6.6 7.3-11.7 15.5-15.3 24.6-3.6 9.1-5.4 18.55-5.4 28.35 0 13.6 2.65 25.2 7.95 34.8 5.3 9.6 12.05 16.9 20.25 21.9s16.6 7.4 25.2 7.2c8.8.2 16.55-.85 23.25-3.15 6.7-2.3 12.3-4.95 16.8-7.95s7.95-5.65 10.35-7.95c.14-.14.27-.25.4-.38l-1.9 16.43h42l15.9-131.1h-39l-4.36 13.46zm-8.55 67.23c-2.6 4.4-5.6 8.05-9 10.95-3.4 2.9-6.95 5.1-10.65 6.6a30.46 30.46 0 0 1-11.55 2.25c-6.6 0-12.45-1.45-17.55-4.35-5.1-2.9-9.05-7-11.85-12.3-2.8-5.3-4.2-11.55-4.2-18.75 0-4 .7-8.15 2.1-12.45 1.4-4.3 3.65-8.35 6.75-12.15 3.1-3.8 7.05-6.9 11.85-9.3 4.8-2.4 10.6-3.6 17.4-3.6 5.4 0 10.2.85 14.4 2.55 4.2 1.7 7.7 4.1 10.5 7.2 2.8 3.1 4.7 6.85 5.7 11.25l-3.9 32.1zm269.1-87.3c-8.6 0-17.15 2.5-25.65 7.5-8.26 4.86-15.52 10.96-21.79 18.27-1.06-9.02-4.79-15.57-11.21-19.62-6.5-4.1-15.05-6.15-25.65-6.15-11 0-20.75 2.45-29.25 7.35-8.29 4.78-15.47 11.42-21.56 19.89l-.49-20.64h-38.1l-15.9 131.1h42l6.6-54.3c1-7.6 3.05-15 6.15-22.2 3.1-7.2 7.2-13.15 12.3-17.85 5.1-4.7 10.95-7.05 17.55-7.05 5.8.4 9.4 2.45 10.8 6.15 1.4 3.7 1.9 8.45 1.5 14.25l-9.9 81h42l6.6-53.7c1-7.8 3.1-15.35 6.3-22.65 3.2-7.3 7.4-13.3 12.6-18 5.2-4.7 11.2-7.05 18-7.05 5.8.4 9.25 2.45 10.35 6.15 1.1 3.7 1.45 8.45 1.05 14.25l-9.9 81h41.7l12-98.4c1.2-11.6-1.6-21.05-8.4-28.35-6.8-7.29-16.7-10.95-29.7-10.95zm204.75 34.2c-4.5-8.8-9.9-15.65-16.2-20.55-6.3-4.9-13.2-8.3-20.7-10.2-7.5-1.9-15.05-2.85-22.65-2.85-14 0-25.95 2.3-35.85 6.9-9.9 4.6-17.9 10.55-24 17.85-6.1 7.3-10.6 15.15-13.5 23.55-2.9 8.4-4.35 16.5-4.35 24.3 0 15.2 3 27.85 9 37.95 6 10.1 14.35 17.6 25.05 22.5 10.7 4.9 23.25 7.35 37.65 7.35 6.8 0 13.85-.9 21.15-2.7 7.3-1.8 14.25-4.3 20.85-7.5l-14.7-32.4c-3.8 2-7.55 3.7-11.25 5.1-3.7 1.4-7.55 2.1-11.55 2.1-4.8 0-9.85-1-15.15-3-4.9-1.84-9.1-5.16-12.63-9.91l98.28-24.29c-1.8-13.99-4.95-25.39-9.45-34.2zm-91.8 17.4c2.3-5.4 5.95-9.8 10.95-13.2 5-3.4 11.6-5.1 19.8-5.1 6.2 0 11.65 1.8 16.35 5.4 4.54 3.48 7.63 8.48 9.27 14.95l-59.81 15.5c0-.25-.02-.49-.02-.75.01-5.79 1.16-11.4 3.46-16.8zm215.25 15.6c-4.2-3.6-9.3-6.6-15.3-9-4.2-1.8-8.45-3.4-12.75-4.8-4.3-1.4-7.95-3.1-10.95-5.1-3-2-4.5-4.6-4.5-7.8 0-2 .5-3.9 1.5-5.7 1-1.8 2.6-3.25 4.8-4.35 2.2-1.1 5.2-1.65 9-1.65 5.2 0 10.05 1.1 14.55 3.3 4.5 2.2 8.85 5.4 13.05 9.6l18.9-23.7c-5.4-4.6-11.05-8.15-16.95-10.65-5.9-2.5-11.9-4.2-18-5.1-6.1-.9-12.15-1.35-18.15-1.35-10.6 0-19.25 1.6-25.95 4.8-6.7 3.2-11.9 7.2-15.6 12-3.7 4.8-6.3 9.75-7.8 14.85s-2.25 9.65-2.25 13.65c0 7.8 2.25 15 6.75 21.6 4.5 6.6 11.95 11.9 22.35 15.9 4.2 1.6 8.25 3.1 12.15 4.5 3.9 1.4 7.1 3.05 9.6 4.95 2.5 1.9 3.75 4.35 3.75 7.35 0 2.2-.9 4.6-2.7 7.2-1.8 2.6-5.8 3.9-12 3.9-2.2 0-5.05-.25-8.55-.75-3.5-.5-7.45-2.05-11.85-4.65-4.4-2.6-9.3-6.9-14.7-12.9l-20.1 21.9c5.6 7.4 12.05 12.9 19.35 16.5 7.3 3.6 14.25 5.95 20.85 7.05 6.6 1.1 11.7 1.65 15.3 1.65 8.8 0 16.6-1.1 23.4-3.3 6.8-2.2 12.55-5.3 17.25-9.3 4.7-4 8.45-8.65 11.25-13.95 2.8-5.3 4.5-10.85 5.1-16.65.8-6.6.25-12.35-1.65-17.25-1.9-4.89-4.95-9.15-9.15-12.75z"/></svg>